# xmcd
# 
# Track frame offsets:
#     183
#     20298
#     30528
#     52960
#     67043
#     91793
#     107910
#     123233
#     137043
#     149090
#     174383
#     187490
#     205385
# 
# Disc length: 2842
# 
# Revision: 4
# Processed by: cddbd v1.5.2PL0 Copyright (c) Steve Scherf et al.
# Submitted via: fre:ac v1.0.27
# 
DISCID=c00b180d
DTITLE=Memphis Slim - Aux 3 Mailletz
DYEAR=1962
DGENRE=Jazz
TTITLE0=Rock and rolling the house
TTITLE1=Baby please come home
TTITLE2=How make you do me like you do
TTITLE3=The way she loves a man
TTITLE4=New way to love
TTITLE5=African hunch with a boogie beat
TTITLE6=Shame pretty girls
TTITLE7=Baby-baby-baby
TTITLE8=Do De Do
TTITLE9=Cold blooded
TTITLE10=Just you and I
TTITLE11=Pigalle love
TTITLE12=All by myself
EXTD=
EXTT0=
EXTT1=
EXTT2=
EXTT3=
EXTT4=
EXTT5=
EXTT6=
EXTT7=
EXTT8=
EXTT9=
EXTT10=
EXTT11=
EXTT12=
PLAYORDER=
